<svg xmlns="http://www.w3.org/2000/svg" width="32" height="32" shape-rendering="crispEdges"><path fill="#99E550" d="M14 7h1v1h-1zm1 0h1v1h-1zm1 0h1v1h-1zm1 1h1v1h-1zm2 0h1v1h-1zm-3 1h1v1h-1zm1 0h1v1h-1zm1 0h1v1h-1zm1 0h1v1h-1zm1 0h1v1h-1zm3 0h1v1h-1zm1 0h1v1h-1zm-8 1h1v1h-1zm1 0h1v1h-1zm1 0h1v1h-1zm1 0h1v1h-1zm1 0h1v1h-1zm1 0h1v1h-1zm3 0h1v1h-1zm1 0h1v1h-1zm-12 1h1v1h-1zm1 0h1v1h-1zm1 0h1v1h-1zm1 0h1v1h-1zm1 0h1v1h-1zm1 0h1v1h-1zm1 0h1v1h-1zm1 0h1v1h-1zm1 0h1v1h-1zm1 0h1v1h-1zm3 0h1v1h-1zm-12 1h1v1h-1zm1 0h1v1h-1zm1 0h1v1h-1zm1 0h1v1h-1zm1 0h1v1h-1zm1 0h1v1h-1zm1 0h1v1h-1zm1 0h1v1h-1zm1 0h1v1h-1zm1 0h1v1h-1zm4 0h1v1h-1zm-13 1h1v1h-1zm1 0h1v1h-1zm1 0h1v1h-1z"/><path fill="#6ABE30" d="M16 13h1v1h-1z"/><path fill="#99E550" d="M17 13h1v1h-1zm1 0h1v1h-1z"/><path fill="#6ABE30" d="M19 13h1v1h-1z"/><path fill="#99E550" d="M20 13h1v1h-1zm1 0h1v1h-1zm1 0h1v1h-1zM7 14h1v1H7zm4 0h1v1h-1zm1 0h1v1h-1zm1 0h1v1h-1zm1 0h1v1h-1zm1 0h1v1h-1zm1 0h1v1h-1zm1 0h1v1h-1zm1 0h1v1h-1zm1 0h1v1h-1zm1 0h1v1h-1zm1 0h1v1h-1zm1 0h1v1h-1zM7 15h1v1H7zm1 0h1v1H8zm2 0h1v1h-1zm1 0h1v1h-1zm1 0h1v1h-1zm1 0h1v1h-1zm1 0h1v1h-1zm1 0h1v1h-1zm1 0h1v1h-1zm1 0h1v1h-1zm1 0h1v1h-1z"/><path fill="#6ABE30" d="M19 15h1v1h-1z"/><path fill="#99E550" d="M20 15h1v1h-1zm1 0h1v1h-1zm1 0h1v1h-1zM4 16h1v1H4zm1 0h1v1H5zm1 0h1v1H6zm1 0h1v1H7zm1 0h1v1H8zm2 0h1v1h-1zm1 0h1v1h-1zm1 0h1v1h-1z"/><path fill="#6ABE30" d="M13 16h1v1h-1z"/><path fill="#99E550" d="M14 16h1v1h-1zm1 0h1v1h-1zm1 0h1v1h-1zm1 0h1v1h-1zm1 0h1v1h-1zm1 0h1v1h-1zm1 0h1v1h-1zM7 17h1v1H7zm1 0h1v1H8zm2 0h1v1h-1zm1 0h1v1h-1z"/><path fill="#6ABE30" d="M12 17h1v1h-1zm1 0h1v1h-1zm1 0h1v1h-1z"/><path fill="#99E550" d="M15 17h1v1h-1zm1 0h1v1h-1zm1 0h1v1h-1zm1 0h1v1h-1zm1 0h1v1h-1zm1 0h1v1h-1zM8 18h1v1H8zm1 0h1v1H9zm2 0h1v1h-1z"/><path fill="#6ABE30" d="M12 18h1v1h-1z"/><path fill="#99E550" d="M13 18h1v1h-1zm1 0h1v1h-1zm1 0h1v1h-1zm1 0h1v1h-1zm1 0h1v1h-1zm1 0h1v1h-1zM8 19h1v1H8zm1 0h1v1H9zm1 0h1v1h-1zm1 0h1v1h-1zm1 0h1v1h-1zm1 0h1v1h-1zm1 0h1v1h-1zm1 0h1v1h-1zm1 0h1v1h-1zm-7 1h1v1H9zm1 0h1v1h-1zm1 0h1v1h-1zm1 0h1v1h-1z"/><path fill="#6ABE30" d="M13 20h1v1h-1z"/><path fill="#99E550" d="M14 20h1v1h-1zm-4 1h1v1h-1zm1 0h1v1h-1zm1 0h1v1h-1zm1 0h1v1h-1zm1 0h1v1h-1zm-5 1h1v1H9zm1 0h1v1h-1zm2 0h1v1h-1zm2 0h1v1h-1zm-3 1h1v1h-1zm7 5h1v1h-1zm2 0h1v1h-1zm1 0h1v1h-1z"/></svg>