<svg xmlns="http://www.w3.org/2000/svg" width="32" height="32" shape-rendering="crispEdges"><path fill="#99E550" d="M16 6h1v1h-1zm-3 1h1v1h-1zm2 0h1v1h-1zm1 0h1v1h-1zm1 0h1v1h-1zm1 0h1v1h-1zm1 0h1v1h-1zm2 0h1v1h-1zm1 0h1v1h-1zM11 8h1v1h-1zm1 0h1v1h-1zm1 0h1v1h-1zm1 0h1v1h-1zm1 0h1v1h-1zm1 0h1v1h-1zm1 0h1v1h-1zm1 0h1v1h-1zm1 0h1v1h-1zm1 0h1v1h-1zm1 0h1v1h-1zm1 0h1v1h-1zm1 0h1v1h-1zM9 9h1v1H9zm1 0h1v1h-1zm1 0h1v1h-1zm1 0h1v1h-1zm1 0h1v1h-1zm1 0h1v1h-1zm1 0h1v1h-1zm1 0h1v1h-1zm1 0h1v1h-1zm1 0h1v1h-1zm1 0h1v1h-1zm1 0h1v1h-1zm1 0h1v1h-1zm1 0h1v1h-1zm1 0h1v1h-1zm1 0h1v1h-1zm1 0h1v1h-1zm1 0h1v1h-1zM8 10h1v1H8zm1 0h1v1H9zm1 0h1v1h-1zm1 0h1v1h-1zm1 0h1v1h-1zm1 0h1v1h-1zm1 0h1v1h-1zm1 0h1v1h-1z"/><path fill="#6ABE30" d="M16 10h1v1h-1zm1 0h1v1h-1zm1 0h1v1h-1zm1 0h1v1h-1z"/><path fill="#99E550" d="M20 10h1v1h-1zm1 0h1v1h-1zm1 0h1v1h-1zm1 0h1v1h-1zm1 0h1v1h-1zm1 0h1v1h-1zm1 0h1v1h-1zm1 0h1v1h-1zM6 11h1v1H6zm1 0h1v1H7zm1 0h1v1H8zm1 0h1v1H9zm1 0h1v1h-1z"/><path fill="#6ABE30" d="M11 11h1v1h-1zm1 0h1v1h-1zm1 0h1v1h-1zm1 0h1v1h-1zm1 0h1v1h-1z"/><path fill="#99E550" d="M16 11h1v1h-1zm1 0h1v1h-1zm1 0h1v1h-1z"/><path fill="#6ABE30" d="M19 11h1v1h-1zm1 0h1v1h-1zm1 0h1v1h-1z"/><path fill="#99E550" d="M22 11h1v1h-1zm1 0h1v1h-1zm1 0h1v1h-1zm1 0h1v1h-1zm1 0h1v1h-1zm1 0h1v1h-1zm1 0h1v1h-1zM6 12h1v1H6zm1 0h1v1H7zm1 0h1v1H8zm1 0h1v1H9zm1 0h1v1h-1z"/><path fill="#6ABE30" d="M11 12h1v1h-1zm1 0h1v1h-1z"/><path fill="#99E550" d="M13 12h1v1h-1zm1 0h1v1h-1zm1 0h1v1h-1zm1 0h1v1h-1zm1 0h1v1h-1zm1 0h1v1h-1zm1 0h1v1h-1zm1 0h1v1h-1z"/><path fill="#6ABE30" d="M21 12h1v1h-1z"/><path fill="#99E550" d="M22 12h1v1h-1zm1 0h1v1h-1zm1 0h1v1h-1zm1 0h1v1h-1zm1 0h1v1h-1zm1 0h1v1h-1zm1 0h1v1h-1zM5 13h1v1H5zm1 0h1v1H6zm1 0h1v1H7zm1 0h1v1H8zm1 0h1v1H9z"/><path fill="#6ABE30" d="M10 13h1v1h-1z"/><path fill="#99E550" d="M11 13h1v1h-1zm1 0h1v1h-1zm1 0h1v1h-1zm1 0h1v1h-1zm1 0h1v1h-1zm1 0h1v1h-1zm1 0h1v1h-1zm1 0h1v1h-1zm1 0h1v1h-1zm1 0h1v1h-1z"/><path fill="#6ABE30" d="M21 13h1v1h-1zm1 0h1v1h-1z"/><path fill="#99E550" d="M23 13h1v1h-1zm1 0h1v1h-1zm1 0h1v1h-1zm1 0h1v1h-1zm1 0h1v1h-1zm1 0h1v1h-1zM4 14h1v1H4zm1 0h1v1H5zm1 0h1v1H6zm1 0h1v1H7zm1 0h1v1H8z"/><path fill="#6ABE30" d="M9 14h1v1H9z"/><path fill="#99E550" d="M10 14h1v1h-1zm1 0h1v1h-1zm1 0h1v1h-1zm1 0h1v1h-1zm1 0h1v1h-1zm1 0h1v1h-1zm1 0h1v1h-1zm1 0h1v1h-1zm1 0h1v1h-1zm1 0h1v1h-1zm1 0h1v1h-1zm1 0h1v1h-1zm1 0h1v1h-1z"/><path fill="#6ABE30" d="M23 14h1v1h-1z"/><path fill="#99E550" d="M24 14h1v1h-1zm1 0h1v1h-1zm1 0h1v1h-1zm1 0h1v1h-1zm1 0h1v1h-1zM4 15h1v1H4zm1 0h1v1H5zm1 0h1v1H6zm1 0h1v1H7z"/><path fill="#6ABE30" d="M8 15h1v1H8zm1 0h1v1H9z"/><path fill="#99E550" d="M10 15h1v1h-1zm1 0h1v1h-1zm1 0h1v1h-1zm1 0h1v1h-1zm1 0h1v1h-1zm1 0h1v1h-1zm1 0h1v1h-1zm1 0h1v1h-1zm1 0h1v1h-1zm1 0h1v1h-1z"/><path fill="#6ABE30" d="M20 15h1v1h-1z"/><path fill="#99E550" d="M21 15h1v1h-1zm1 0h1v1h-1zm1 0h1v1h-1zm1 0h1v1h-1zm1 0h1v1h-1zm1 0h1v1h-1zm1 0h1v1h-1zm1 0h1v1h-1zm1 0h1v1h-1zM4 16h1v1H4zm1 0h1v1H5zm1 0h1v1H6zm1 0h1v1H7z"/><path fill="#6ABE30" d="M8 16h1v1H8z"/><path fill="#99E550" d="M9 16h1v1H9zm1 0h1v1h-1zm1 0h1v1h-1zm1 0h1v1h-1zm1 0h1v1h-1zm1 0h1v1h-1zm1 0h1v1h-1zm1 0h1v1h-1zm1 0h1v1h-1zm1 0h1v1h-1zm1 0h1v1h-1z"/><path fill="#6ABE30" d="M20 16h1v1h-1zm1 0h1v1h-1z"/><path fill="#99E550" d="M22 16h1v1h-1zm1 0h1v1h-1zm1 0h1v1h-1zm1 0h1v1h-1zm1 0h1v1h-1zm1 0h1v1h-1zm1 0h1v1h-1zm1 0h1v1h-1zm1 0h1v1h-1zM4 17h1v1H4zm1 0h1v1H5zm1 0h1v1H6zm1 0h1v1H7z"/><path fill="#6ABE30" d="M8 17h1v1H8z"/><path fill="#99E550" d="M9 17h1v1H9zm1 0h1v1h-1zm1 0h1v1h-1zm1 0h1v1h-1zm1 0h1v1h-1zm1 0h1v1h-1zm1 0h1v1h-1zm1 0h1v1h-1zm1 0h1v1h-1zm1 0h1v1h-1zm1 0h1v1h-1zm1 0h1v1h-1z"/><path fill="#6ABE30" d="M21 17h1v1h-1z"/><path fill="#99E550" d="M22 17h1v1h-1zm1 0h1v1h-1zm1 0h1v1h-1zm1 0h1v1h-1zm1 0h1v1h-1zm1 0h1v1h-1zm1 0h1v1h-1zm1 0h1v1h-1zm1 0h1v1h-1zM4 18h1v1H4zm1 0h1v1H5z"/><path fill="#6ABE30" d="M6 18h1v1H6z"/><path fill="#99E550" d="M7 18h1v1H7zm1 0h1v1H8zm1 0h1v1H9zm1 0h1v1h-1zm1 0h1v1h-1zm1 0h1v1h-1zm1 0h1v1h-1zm1 0h1v1h-1zm1 0h1v1h-1zm1 0h1v1h-1zm1 0h1v1h-1zm1 0h1v1h-1zm1 0h1v1h-1z"/><path fill="#6ABE30" d="M20 18h1v1h-1zm1 0h1v1h-1z"/><path fill="#99E550" d="M22 18h1v1h-1zm1 0h1v1h-1zm1 0h1v1h-1zm1 0h1v1h-1zm1 0h1v1h-1zm1 0h1v1h-1zm1 0h1v1h-1zm1 0h1v1h-1zM3 19h1v1H3zm1 0h1v1H4z"/><path fill="#6ABE30" d="M5 19h1v1H5z"/><path fill="#99E550" d="M6 19h1v1H6zm1 0h1v1H7zm1 0h1v1H8zm1 0h1v1H9zm1 0h1v1h-1zm1 0h1v1h-1zm1 0h1v1h-1zm1 0h1v1h-1zm1 0h1v1h-1zm1 0h1v1h-1zm1 0h1v1h-1zm1 0h1v1h-1zm1 0h1v1h-1z"/><path fill="#6ABE30" d="M19 19h1v1h-1zm1 0h1v1h-1zm1 0h1v1h-1z"/><path fill="#99E550" d="M22 19h1v1h-1zm1 0h1v1h-1zm1 0h1v1h-1zm1 0h1v1h-1zm1 0h1v1h-1zm3 0h1v1h-1zM3 20h1v1H3zm1 0h1v1H4z"/><path fill="#6ABE30" d="M5 20h1v1H5zm1 0h1v1H6z"/><path fill="#99E550" d="M7 20h1v1H7zm1 0h1v1H8zm1 0h1v1H9zm1 0h1v1h-1zm1 0h1v1h-1zm1 0h1v1h-1zm1 0h1v1h-1zm1 0h1v1h-1zm1 0h1v1h-1zm1 0h1v1h-1zm1 0h1v1h-1zm1 0h1v1h-1zm1 0h1v1h-1z"/><path fill="#6ABE30" d="M20 20h1v1h-1z"/><path fill="#99E550" d="M21 20h1v1h-1zm1 0h1v1h-1zm1 0h1v1h-1zm1 0h1v1h-1zm1 0h1v1h-1zm1 0h1v1h-1zM3 21h1v1H3zm1 0h1v1H4z"/><path fill="#6ABE30" d="M5 21h1v1H5z"/><path fill="#99E550" d="M6 21h1v1H6zm1 0h1v1H7zm1 0h1v1H8zm1 0h1v1H9zm1 0h1v1h-1zm1 0h1v1h-1zm1 0h1v1h-1zm1 0h1v1h-1zm1 0h1v1h-1zm1 0h1v1h-1zm1 0h1v1h-1zm1 0h1v1h-1zm1 0h1v1h-1z"/><path fill="#6ABE30" d="M19 21h1v1h-1zm1 0h1v1h-1z"/><path fill="#99E550" d="M21 21h1v1h-1zm1 0h1v1h-1zm1 0h1v1h-1zm1 0h1v1h-1zM2 22h1v1H2zm1 0h1v1H3zm1 0h1v1H4z"/><path fill="#6ABE30" d="M5 22h1v1H5z"/><path fill="#99E550" d="M6 22h1v1H6zm1 0h1v1H7zm1 0h1v1H8zm1 0h1v1H9zm1 0h1v1h-1zm1 0h1v1h-1zm1 0h1v1h-1zm1 0h1v1h-1zm1 0h1v1h-1zm1 0h1v1h-1zm1 0h1v1h-1zm1 0h1v1h-1zm1 0h1v1h-1zm1 0h1v1h-1zm1 0h1v1h-1zm1 0h1v1h-1zm1 0h1v1h-1zM2 23h1v1H2zm1 0h1v1H3zm1 0h1v1H4z"/><path fill="#6ABE30" d="M5 23h1v1H5zm1 0h1v1H6zm1 0h1v1H7z"/><path fill="#99E550" d="M8 23h1v1H8zm1 0h1v1H9z"/><path fill="#6ABE30" d="M10 23h1v1h-1z"/><path fill="#99E550" d="M11 23h1v1h-1z"/><path fill="#6ABE30" d="M12 23h1v1h-1z"/><path fill="#99E550" d="M13 23h1v1h-1zm1 0h1v1h-1zm1 0h1v1h-1zm1 0h1v1h-1zm1 0h1v1h-1zm1 0h1v1h-1zm1 0h1v1h-1zm1 0h1v1h-1zm1 0h1v1h-1zm1 0h1v1h-1zM2 24h1v1H2zm3 0h1v1H5zm1 0h1v1H6zm1 0h1v1H7z"/><path fill="#6ABE30" d="M8 24h1v1H8zm1 0h1v1H9z"/><path fill="#99E550" d="M10 24h1v1h-1zm1 0h1v1h-1zm1 0h1v1h-1zm1 0h1v1h-1zm1 0h1v1h-1zm1 0h1v1h-1zm1 0h1v1h-1zm1 0h1v1h-1zm1 0h1v1h-1zm1 0h1v1h-1zM5 25h1v1H5zm1 0h1v1H6zm1 0h1v1H7zm1 0h1v1H8zm1 0h1v1H9zm1 0h1v1h-1zm1 0h1v1h-1zm1 0h1v1h-1zm1 0h1v1h-1zm1 0h1v1h-1zm1 0h1v1h-1zm1 0h1v1h-1zm1 0h1v1h-1zM7 26h1v1H7zm1 0h1v1H8zm1 0h1v1H9zm1 0h1v1h-1zm1 0h1v1h-1zm1 0h1v1h-1zm1 0h1v1h-1zm1 0h1v1h-1zm1 0h1v1h-1zm1 0h1v1h-1zm1 0h1v1h-1zM7 27h1v1H7zm1 0h1v1H8zm5 0h1v1h-1zm2 0h1v1h-1z"/></svg>