<svg xmlns="http://www.w3.org/2000/svg" width="32" height="32" shape-rendering="crispEdges"><path d="M12 1h1v1h-1zm1 0h1v1h-1z"/><path fill="#AC3232" d="M14 1h1v1h-1zm1 0h1v1h-1z"/><path d="M11 2h1v1h-1z"/><path fill="#6ABE30" d="M12 2h1v1h-1zm1 0h1v1h-1z"/><path d="M14 2h1v1h-1z"/><path fill="#AC3232" d="M15 2h1v1h-1zm1 0h1v1h-1z"/><path d="M11 3h1v1h-1z"/><path fill="#6ABE30" d="M12 3h1v1h-1z"/><path d="M13 3h1v1h-1zm1 0h1v1h-1z"/><path fill="#AC3232" d="M16 3h1v1h-1z"/><path d="M17 3h1v1h-1zm1 0h1v1h-1zm-8 1h1v1h-1zm1 0h1v1h-1z"/><path fill="#6ABE30" d="M12 4h1v1h-1zm1 0h1v1h-1z"/><path d="M14 4h1v1h-1zm1 0h1v1h-1zm1 0h1v1h-1zm1 0h1v1h-1zm1 0h1v1h-1zm-8 1h1v1h-1z"/><path fill="#6ABE30" d="M11 5h1v1h-1zm1 0h1v1h-1zm1 0h1v1h-1zm1 0h1v1h-1zm1 0h1v1h-1zm1 0h1v1h-1zm1 0h1v1h-1z"/><path d="M18 5h1v1h-1zm-8 1h1v1h-1z"/><path fill="#6ABE30" d="M11 6h1v1h-1zm1 0h1v1h-1zm1 0h1v1h-1zm1 0h1v1h-1zm1 0h1v1h-1zm1 0h1v1h-1zm1 0h1v1h-1z"/><path d="M18 6h1v1h-1zM9 7h1v1H9z"/><path fill="#6ABE30" d="M10 7h1v1h-1zm1 0h1v1h-1zm1 0h1v1h-1zm1 0h1v1h-1zm1 0h1v1h-1zm1 0h1v1h-1zm1 0h1v1h-1zm1 0h1v1h-1z"/><path d="M18 7h1v1h-1zM9 8h1v1H9z"/><path fill="#6ABE30" d="M10 8h1v1h-1zm1 0h1v1h-1zm1 0h1v1h-1zm1 0h1v1h-1zm1 0h1v1h-1zm1 0h1v1h-1zm1 0h1v1h-1zm1 0h1v1h-1z"/><path d="M18 8h1v1h-1zM8 9h1v1H8zm1 0h1v1H9z"/><path fill="#6ABE30" d="M10 9h1v1h-1zm1 0h1v1h-1zm1 0h1v1h-1zm1 0h1v1h-1zm1 0h1v1h-1zm1 0h1v1h-1zm1 0h1v1h-1zm1 0h1v1h-1z"/><path d="M18 9h1v1h-1zM7 10h1v1H7zm1 0h1v1H8z"/><path fill="#6ABE30" d="M9 10h1v1H9zm1 0h1v1h-1zm1 0h1v1h-1zm1 0h1v1h-1zm1 0h1v1h-1zm1 0h1v1h-1zm1 0h1v1h-1zm1 0h1v1h-1zm1 0h1v1h-1z"/><path d="M18 10h1v1h-1zM6 11h1v1H6zm1 0h1v1H7z"/><path fill="#6ABE30" d="M8 11h1v1H8zm1 0h1v1H9zm1 0h1v1h-1zm1 0h1v1h-1zm1 0h1v1h-1zm1 0h1v1h-1zm1 0h1v1h-1zm1 0h1v1h-1zm1 0h1v1h-1zm1 0h1v1h-1z"/><path d="M18 11h1v1h-1zM6 12h1v1H6z"/><path fill="#6ABE30" d="M7 12h1v1H7zm1 0h1v1H8zm1 0h1v1H9zm1 0h1v1h-1zm1 0h1v1h-1zm1 0h1v1h-1zm1 0h1v1h-1zm1 0h1v1h-1zm1 0h1v1h-1zm1 0h1v1h-1zm1 0h1v1h-1z"/><path d="M18 12h1v1h-1zm1 0h1v1h-1zM6 13h1v1H6zm1 0h1v1H7z"/><path fill="#6ABE30" d="M8 13h1v1H8zm1 0h1v1H9zm1 0h1v1h-1zm1 0h1v1h-1zm1 0h1v1h-1zm1 0h1v1h-1zm1 0h1v1h-1zm1 0h1v1h-1zm1 0h1v1h-1zm1 0h1v1h-1zm1 0h1v1h-1z"/><path d="M19 13h1v1h-1z"/><path fill="#663931" d="M4 14h1v1H4zm1 0h1v1H5z"/><path d="M6 14h1v1H6z"/><path fill="#6ABE30" d="M7 14h1v1H7zm1 0h1v1H8zm1 0h1v1H9z"/><path d="M10 14h1v1h-1zm1 0h1v1h-1zm1 0h1v1h-1z"/><path fill="#6ABE30" d="M13 14h1v1h-1zm1 0h1v1h-1zm1 0h1v1h-1zm1 0h1v1h-1zm1 0h1v1h-1zm1 0h1v1h-1z"/><path d="M19 14h1v1h-1z"/><path fill="#663931" d="M4 15h1v1H4zm1 0h1v1H5z"/><path d="M6 15h1v1H6z"/><path fill="#6ABE30" d="M7 15h1v1H7zm1 0h1v1H8zm1 0h1v1H9zm1 0h1v1h-1zm1 0h1v1h-1zm1 0h1v1h-1zm1 0h1v1h-1zm1 0h1v1h-1zm1 0h1v1h-1zm1 0h1v1h-1zm1 0h1v1h-1zm1 0h1v1h-1z"/><path d="M19 15h1v1h-1z"/><path fill="#FBF236" d="M3 16h1v1H3zm1 0h1v1H4zm1 0h1v1H5z"/><path d="M6 16h1v1H6z"/><path fill="#6ABE30" d="M7 16h1v1H7zm1 0h1v1H8zm1 0h1v1H9zm1 0h1v1h-1zm1 0h1v1h-1zm1 0h1v1h-1zm1 0h1v1h-1zm1 0h1v1h-1zm1 0h1v1h-1zm1 0h1v1h-1zm1 0h1v1h-1zm1 0h1v1h-1z"/><path d="M19 16h1v1h-1z"/><path fill="#FBF236" d="M3 17h1v1H3zm1 0h1v1H4zm1 0h1v1H5z"/><path d="M6 17h1v1H6z"/><path fill="#6ABE30" d="M7 17h1v1H7zm1 0h1v1H8zm1 0h1v1H9zm1 0h1v1h-1zm1 0h1v1h-1zm1 0h1v1h-1zm1 0h1v1h-1zm1 0h1v1h-1zm1 0h1v1h-1zm1 0h1v1h-1zm1 0h1v1h-1zm1 0h1v1h-1z"/><path d="M19 17h1v1h-1z"/><path fill="#663931" d="M4 18h1v1H4zm1 0h1v1H5z"/><path d="M6 18h1v1H6z"/><path fill="#6ABE30" d="M7 18h1v1H7zm1 0h1v1H8zm1 0h1v1H9zm1 0h1v1h-1zm1 0h1v1h-1zm1 0h1v1h-1zm1 0h1v1h-1zm1 0h1v1h-1zm1 0h1v1h-1zm1 0h1v1h-1zm1 0h1v1h-1zm1 0h1v1h-1z"/><path d="M19 18h1v1h-1z"/><path fill="#663931" d="M4 19h1v1H4zm1 0h1v1H5z"/><path d="M6 19h1v1H6z"/><path fill="#6ABE30" d="M7 19h1v1H7zm1 0h1v1H8zm1 0h1v1H9zm1 0h1v1h-1zm1 0h1v1h-1zm1 0h1v1h-1zm1 0h1v1h-1zm1 0h1v1h-1zm1 0h1v1h-1zm1 0h1v1h-1zm1 0h1v1h-1zm1 0h1v1h-1z"/><path d="M19 19h1v1h-1zM6 20h1v1H6zm1 0h1v1H7z"/><path fill="#6ABE30" d="M8 20h1v1H8zm1 0h1v1H9zm1 0h1v1h-1zm1 0h1v1h-1zm1 0h1v1h-1zm1 0h1v1h-1zm1 0h1v1h-1zm1 0h1v1h-1zm1 0h1v1h-1zm1 0h1v1h-1zm1 0h1v1h-1z"/><path d="M19 20h1v1h-1zM7 21h1v1H7zm1 0h1v1H8z"/><path fill="#6ABE30" d="M9 21h1v1H9zm1 0h1v1h-1zm1 0h1v1h-1zm1 0h1v1h-1z"/><path d="M13 21h1v1h-1zm1 0h1v1h-1z"/><path fill="#6ABE30" d="M15 21h1v1h-1zm1 0h1v1h-1zm1 0h1v1h-1z"/><path d="M18 21h1v1h-1zm1 0h1v1h-1zM7 22h1v1H7zm1 0h1v1H8zm1 0h1v1H9zm1 0h1v1h-1zm1 0h1v1h-1zm1 0h1v1h-1zm1 0h1v1h-1zm1 0h1v1h-1zm1 0h1v1h-1zm1 0h1v1h-1zm1 0h1v1h-1zm1 0h1v1h-1zM7 23h1v1H7zm1 0h1v1H8z"/><path fill="#663931" d="M9 23h1v1H9zm1 0h1v1h-1zm1 0h1v1h-1zm1 0h1v1h-1zm1 0h1v1h-1zm1 0h1v1h-1z"/><path d="M15 23h1v1h-1zm-8 1h1v1H7zm1 0h1v1H8z"/><path fill="#663931" d="M9 24h1v1H9zm1 0h1v1h-1zm1 0h1v1h-1zm1 0h1v1h-1zm1 0h1v1h-1zm1 0h1v1h-1z"/><path d="M15 24h1v1h-1zm1 0h1v1h-1zm-8 1h1v1H8zm1 0h1v1H9z"/><path fill="#663931" d="M10 25h1v1h-1zm1 0h1v1h-1zm1 0h1v1h-1zm1 0h1v1h-1zm1 0h1v1h-1zm1 0h1v1h-1z"/><path d="M16 25h1v1h-1zm1 0h1v1h-1zm-8 1h1v1H9z"/><path fill="#663931" d="M10 26h1v1h-1zm1 0h1v1h-1zm1 0h1v1h-1z"/><path fill="#AC3232" d="M13 26h1v1h-1z"/><path fill="#663931" d="M14 26h1v1h-1zm1 0h1v1h-1zm1 0h1v1h-1z"/><path d="M17 26h1v1h-1zm-8 1h1v1H9z"/><path fill="#663931" d="M10 27h1v1h-1zm1 0h1v1h-1zm1 0h1v1h-1z"/><path fill="#AC3232" d="M13 27h1v1h-1z"/><path fill="#663931" d="M14 27h1v1h-1zm1 0h1v1h-1zm1 0h1v1h-1z"/><path d="M17 27h1v1h-1zm1 0h1v1h-1zm-9 1h1v1H9z"/><path fill="#663931" d="M10 28h1v1h-1zm1 0h1v1h-1z"/><path fill="#AC3232" d="M12 28h1v1h-1zm1 0h1v1h-1zm1 0h1v1h-1z"/><path fill="#663931" d="M15 28h1v1h-1zm1 0h1v1h-1zm1 0h1v1h-1z"/><path d="M18 28h1v1h-1zm-9 1h1v1H9z"/><path fill="#663931" d="M10 29h1v1h-1zm1 0h1v1h-1zm1 0h1v1h-1z"/><path fill="#AC3232" d="M13 29h1v1h-1z"/><path fill="#663931" d="M14 29h1v1h-1zm1 0h1v1h-1zm1 0h1v1h-1zm1 0h1v1h-1z"/><path d="M18 29h1v1h-1zm1 0h1v1h-1zM9 30h1v1H9z"/><path fill="#663931" d="M10 30h1v1h-1zm1 0h1v1h-1zm1 0h1v1h-1zm1 0h1v1h-1zm1 0h1v1h-1zm1 0h1v1h-1zm1 0h1v1h-1zm1 0h1v1h-1zm1 0h1v1h-1z"/><path d="M19 30h1v1h-1zM9 31h1v1H9z"/><path fill="#663931" d="M10 31h1v1h-1zm1 0h1v1h-1zm1 0h1v1h-1zm1 0h1v1h-1zm1 0h1v1h-1zm1 0h1v1h-1zm1 0h1v1h-1zm1 0h1v1h-1zm1 0h1v1h-1z"/><path d="M19 31h1v1h-1z"/></svg>