<svg xmlns="http://www.w3.org/2000/svg" width="32" height="32" shape-rendering="crispEdges"><path d="M13 7h1v1h-1zm1 0h1v1h-1zm1 0h1v1h-1zm1 0h1v1h-1zm1 0h1v1h-1zm1 0h1v1h-1zm1 0h1v1h-1zm1 0h1v1h-1zm1 0h1v1h-1zM10 8h1v1h-1zm1 0h1v1h-1zm1 0h1v1h-1z"/><path fill="#6ABE30" d="M13 8h1v1h-1z"/><path d="M14 8h1v1h-1zm1 0h1v1h-1z"/><path fill="#6ABE30" d="M16 8h1v1h-1zm1 0h1v1h-1zm1 0h1v1h-1zm1 0h1v1h-1z"/><path d="M20 8h1v1h-1zm1 0h1v1h-1zM9 9h1v1H9zm1 0h1v1h-1z"/><path fill="#6ABE30" d="M11 9h1v1h-1zm1 0h1v1h-1zm1 0h1v1h-1zm1 0h1v1h-1zm1 0h1v1h-1zm1 0h1v1h-1zm1 0h1v1h-1zm1 0h1v1h-1zm1 0h1v1h-1zm1 0h1v1h-1z"/><path d="M21 9h1v1h-1zm1 0h1v1h-1z"/><path fill="#663931" d="M24 9h1v1h-1z"/><path d="M9 10h1v1H9z"/><path fill="#6ABE30" d="M10 10h1v1h-1zm1 0h1v1h-1zm1 0h1v1h-1zm1 0h1v1h-1zm1 0h1v1h-1zm1 0h1v1h-1zm1 0h1v1h-1zm1 0h1v1h-1zm1 0h1v1h-1zm1 0h1v1h-1zm1 0h1v1h-1zm1 0h1v1h-1z"/><path d="M22 10h1v1h-1z"/><path fill="#663931" d="M23 10h1v1h-1zm1 0h1v1h-1z"/><path d="M9 11h1v1H9z"/><path fill="#6ABE30" d="M10 11h1v1h-1zm1 0h1v1h-1zm1 0h1v1h-1zm1 0h1v1h-1zm1 0h1v1h-1zm1 0h1v1h-1zm1 0h1v1h-1zm1 0h1v1h-1zm1 0h1v1h-1zm1 0h1v1h-1zm1 0h1v1h-1zm1 0h1v1h-1z"/><path d="M22 11h1v1h-1z"/><path fill="#663931" d="M23 11h1v1h-1z"/><path fill="#FBF236" d="M24 11h1v1h-1zm1 0h1v1h-1z"/><path d="M9 12h1v1H9z"/><path fill="#6ABE30" d="M10 12h1v1h-1zm1 0h1v1h-1zm1 0h1v1h-1zm1 0h1v1h-1zm1 0h1v1h-1zm1 0h1v1h-1zm1 0h1v1h-1zm1 0h1v1h-1zm1 0h1v1h-1zm1 0h1v1h-1zm1 0h1v1h-1zm1 0h1v1h-1z"/><path d="M22 12h1v1h-1z"/><path fill="#FBF236" d="M23 12h1v1h-1zm1 0h1v1h-1zm1 0h1v1h-1z"/><path d="M9 13h1v1H9z"/><path fill="#6ABE30" d="M10 13h1v1h-1zm1 0h1v1h-1zm1 0h1v1h-1zm1 0h1v1h-1zm1 0h1v1h-1zm1 0h1v1h-1zm1 0h1v1h-1zm1 0h1v1h-1zm1 0h1v1h-1zm1 0h1v1h-1zm1 0h1v1h-1zm1 0h1v1h-1z"/><path d="M22 13h1v1h-1z"/><path fill="#FBF236" d="M23 13h1v1h-1z"/><path fill="#663931" d="M24 13h1v1h-1z"/><path d="M9 14h1v1H9z"/><path fill="#6ABE30" d="M10 14h1v1h-1zm1 0h1v1h-1zm1 0h1v1h-1zm1 0h1v1h-1zm1 0h1v1h-1zm1 0h1v1h-1zm1 0h1v1h-1zm1 0h1v1h-1zm1 0h1v1h-1zm1 0h1v1h-1zm1 0h1v1h-1zm1 0h1v1h-1z"/><path d="M22 14h1v1h-1z"/><path fill="#663931" d="M23 14h1v1h-1zm1 0h1v1h-1z"/><path d="M9 15h1v1H9z"/><path fill="#6ABE30" d="M10 15h1v1h-1zm1 0h1v1h-1zm1 0h1v1h-1zm1 0h1v1h-1zm1 0h1v1h-1zm1 0h1v1h-1zm1 0h1v1h-1zm1 0h1v1h-1zm1 0h1v1h-1zm1 0h1v1h-1zm1 0h1v1h-1zm1 0h1v1h-1z"/><path d="M22 15h1v1h-1z"/><path fill="#663931" d="M23 15h1v1h-1z"/><path d="M9 16h1v1H9z"/><path fill="#6ABE30" d="M10 16h1v1h-1zm1 0h1v1h-1zm1 0h1v1h-1zm1 0h1v1h-1zm1 0h1v1h-1zm1 0h1v1h-1z"/><path d="M16 16h1v1h-1zm1 0h1v1h-1zm1 0h1v1h-1z"/><path fill="#6ABE30" d="M19 16h1v1h-1zm1 0h1v1h-1z"/><path d="M21 16h1v1h-1zm1 0h1v1h-1zM9 17h1v1H9z"/><path fill="#6ABE30" d="M10 17h1v1h-1zm1 0h1v1h-1zm1 0h1v1h-1zm1 0h1v1h-1zm1 0h1v1h-1zm1 0h1v1h-1zm1 0h1v1h-1zm1 0h1v1h-1zm1 0h1v1h-1zm1 0h1v1h-1zm1 0h1v1h-1zm1 0h1v1h-1z"/><path d="M22 17h1v1h-1zM9 18h1v1H9zm1 0h1v1h-1z"/><path fill="#6ABE30" d="M11 18h1v1h-1zm1 0h1v1h-1zm1 0h1v1h-1zm1 0h1v1h-1zm1 0h1v1h-1zm1 0h1v1h-1zm1 0h1v1h-1zm1 0h1v1h-1zm1 0h1v1h-1zm1 0h1v1h-1z"/><path d="M21 18h1v1h-1zm1 0h1v1h-1zM9 19h1v1H9zm1 0h1v1h-1z"/><path fill="#6ABE30" d="M11 19h1v1h-1zm1 0h1v1h-1zm1 0h1v1h-1zm1 0h1v1h-1zm1 0h1v1h-1zm1 0h1v1h-1zm1 0h1v1h-1zm1 0h1v1h-1zm1 0h1v1h-1z"/><path d="M20 19h1v1h-1zm1 0h1v1h-1zM9 20h1v1H9zm1 0h1v1h-1z"/><path fill="#6ABE30" d="M11 20h1v1h-1zm1 0h1v1h-1zm1 0h1v1h-1zm1 0h1v1h-1zm1 0h1v1h-1zm1 0h1v1h-1zm1 0h1v1h-1zm1 0h1v1h-1z"/><path d="M19 20h1v1h-1zm1 0h1v1h-1zM8 21h1v1H8zm1 0h1v1H9zm1 0h1v1h-1z"/><path fill="#6ABE30" d="M11 21h1v1h-1zm1 0h1v1h-1zm1 0h1v1h-1zm1 0h1v1h-1zm1 0h1v1h-1zm1 0h1v1h-1zm1 0h1v1h-1zm1 0h1v1h-1z"/><path d="M19 21h1v1h-1zM8 22h1v1H8zm1 0h1v1H9zm1 0h1v1h-1z"/><path fill="#6ABE30" d="M11 22h1v1h-1zm1 0h1v1h-1zm1 0h1v1h-1zm1 0h1v1h-1zm1 0h1v1h-1zm1 0h1v1h-1zm1 0h1v1h-1zm1 0h1v1h-1z"/><path d="M19 22h1v1h-1zM7 23h1v1H7zm1 0h1v1H8zm1 0h1v1H9zm1 0h1v1h-1z"/><path fill="#6ABE30" d="M11 23h1v1h-1zm1 0h1v1h-1zm1 0h1v1h-1zm1 0h1v1h-1zm1 0h1v1h-1zm1 0h1v1h-1zm1 0h1v1h-1z"/><path d="M18 23h1v1h-1zM7 24h1v1H7zm1 0h1v1H8zm1 0h1v1H9zm1 0h1v1h-1z"/><path fill="#6ABE30" d="M11 24h1v1h-1zm1 0h1v1h-1zm1 0h1v1h-1zm1 0h1v1h-1zm1 0h1v1h-1zm1 0h1v1h-1zm1 0h1v1h-1z"/><path d="M18 24h1v1h-1zM8 25h1v1H8zm1 0h1v1H9zm1 0h1v1h-1z"/><path fill="#6ABE30" d="M11 25h1v1h-1zm1 0h1v1h-1z"/><path d="M13 25h1v1h-1zm1 0h1v1h-1z"/><path fill="#6ABE30" d="M15 25h1v1h-1zm1 0h1v1h-1z"/><path d="M17 25h1v1h-1zm1 0h1v1h-1zM8 26h1v1H8zm1 0h1v1H9zm1 0h1v1h-1zm1 0h1v1h-1zm1 0h1v1h-1z"/><path fill="#AC3232" d="M13 26h1v1h-1z"/><path d="M14 26h1v1h-1zm1 0h1v1h-1z"/><path fill="#6ABE30" d="M16 26h1v1h-1z"/><path d="M17 26h1v1h-1zm-8 1h1v1H9zm1 0h1v1h-1zm1 0h1v1h-1z"/><path fill="#FBF236" d="M12 27h1v1h-1z"/><path fill="#AC3232" d="M13 27h1v1h-1z"/><path d="M14 27h1v1h-1z"/><path fill="#6ABE30" d="M15 27h1v1h-1zm1 0h1v1h-1z"/><path d="M17 27h1v1h-1zm-8 1h1v1H9z"/><path fill="#663931" d="M10 28h1v1h-1zm1 0h1v1h-1zm1 0h1v1h-1z"/><path fill="#AC3232" d="M13 28h1v1h-1zm1 0h1v1h-1zm1 0h1v1h-1z"/><path fill="#663931" d="M16 28h1v1h-1z"/><path d="M17 28h1v1h-1zm1 0h1v1h-1zm-9 1h1v1H9z"/><path fill="#663931" d="M10 29h1v1h-1zm1 0h1v1h-1zm1 0h1v1h-1zm1 0h1v1h-1zm1 0h1v1h-1z"/><path fill="#AC3232" d="M15 29h1v1h-1z"/><path fill="#663931" d="M16 29h1v1h-1zm1 0h1v1h-1z"/><path d="M18 29h1v1h-1zm1 0h1v1h-1zM9 30h1v1H9z"/><path fill="#663931" d="M10 30h1v1h-1zm1 0h1v1h-1zm1 0h1v1h-1zm1 0h1v1h-1zm1 0h1v1h-1zm1 0h1v1h-1zm1 0h1v1h-1zm1 0h1v1h-1zm1 0h1v1h-1z"/><path d="M19 30h1v1h-1zM9 31h1v1H9z"/><path fill="#663931" d="M10 31h1v1h-1zm1 0h1v1h-1zm1 0h1v1h-1zm1 0h1v1h-1zm1 0h1v1h-1zm1 0h1v1h-1zm1 0h1v1h-1zm1 0h1v1h-1zm1 0h1v1h-1z"/><path d="M19 31h1v1h-1z"/></svg>