<svg xmlns="http://www.w3.org/2000/svg" width="32" height="32" shape-rendering="crispEdges"><path fill="#FBF236" d="M14 4h1v1h-1zm1 0h1v1h-1z"/><path fill="#663931" d="M12 5h1v1h-1zm1 0h1v1h-1z"/><path fill="#FBF236" d="M14 5h1v1h-1zm1 0h1v1h-1z"/><path fill="#663931" d="M16 5h1v1h-1zm1 0h1v1h-1zm-5 1h1v1h-1zm1 0h1v1h-1z"/><path fill="#FBF236" d="M14 6h1v1h-1zm1 0h1v1h-1z"/><path fill="#663931" d="M16 6h1v1h-1zm1 0h1v1h-1z"/><path d="M11 7h1v1h-1zm1 0h1v1h-1zm1 0h1v1h-1zm1 0h1v1h-1zm1 0h1v1h-1zm1 0h1v1h-1zm1 0h1v1h-1zm1 0h1v1h-1zM9 8h1v1H9zm1 0h1v1h-1zm1 0h1v1h-1z"/><path fill="#6ABE30" d="M12 8h1v1h-1zm1 0h1v1h-1zm1 0h1v1h-1zm1 0h1v1h-1zm1 0h1v1h-1zm1 0h1v1h-1z"/><path d="M18 8h1v1h-1zm1 0h1v1h-1zm1 0h1v1h-1zM8 9h1v1H8zm1 0h1v1H9z"/><path fill="#6ABE30" d="M10 9h1v1h-1zm1 0h1v1h-1zm1 0h1v1h-1zm1 0h1v1h-1zm1 0h1v1h-1zm1 0h1v1h-1zm1 0h1v1h-1zm1 0h1v1h-1zm1 0h1v1h-1zm1 0h1v1h-1z"/><path d="M20 9h1v1h-1zm1 0h1v1h-1zM8 10h1v1H8z"/><path fill="#6ABE30" d="M9 10h1v1H9zm1 0h1v1h-1zm1 0h1v1h-1zm1 0h1v1h-1zm1 0h1v1h-1zm1 0h1v1h-1zm1 0h1v1h-1z"/><path d="M16 10h1v1h-1z"/><path fill="#6ABE30" d="M17 10h1v1h-1zm1 0h1v1h-1zm1 0h1v1h-1zm1 0h1v1h-1z"/><path d="M21 10h1v1h-1zm1 0h1v1h-1zM7 11h1v1H7zm1 0h1v1H8z"/><path fill="#6ABE30" d="M9 11h1v1H9zm1 0h1v1h-1zm1 0h1v1h-1zm1 0h1v1h-1zm1 0h1v1h-1zm1 0h1v1h-1zm1 0h1v1h-1z"/><path d="M16 11h1v1h-1z"/><path fill="#6ABE30" d="M17 11h1v1h-1zm1 0h1v1h-1zm1 0h1v1h-1zm1 0h1v1h-1zm1 0h1v1h-1z"/><path d="M22 11h1v1h-1zm1 0h1v1h-1zm1 0h1v1h-1zM7 12h1v1H7z"/><path fill="#6ABE30" d="M8 12h1v1H8zm1 0h1v1H9zm1 0h1v1h-1zm1 0h1v1h-1zm1 0h1v1h-1zm1 0h1v1h-1zm1 0h1v1h-1zm1 0h1v1h-1z"/><path d="M16 12h1v1h-1z"/><path fill="#6ABE30" d="M17 12h1v1h-1zm1 0h1v1h-1zm1 0h1v1h-1zm1 0h1v1h-1zm1 0h1v1h-1zm1 0h1v1h-1zm1 0h1v1h-1z"/><path d="M24 12h1v1h-1zm1 0h1v1h-1zm1 0h1v1h-1zM7 13h1v1H7z"/><path fill="#6ABE30" d="M8 13h1v1H8zm1 0h1v1H9zm1 0h1v1h-1zm1 0h1v1h-1zm1 0h1v1h-1zm1 0h1v1h-1zm1 0h1v1h-1zm1 0h1v1h-1zm1 0h1v1h-1zm1 0h1v1h-1zm1 0h1v1h-1zm1 0h1v1h-1zm1 0h1v1h-1zm1 0h1v1h-1zm1 0h1v1h-1zm1 0h1v1h-1zm1 0h1v1h-1zm1 0h1v1h-1z"/><path d="M26 13h1v1h-1zM7 14h1v1H7z"/><path fill="#6ABE30" d="M8 14h1v1H8zm1 0h1v1H9zm1 0h1v1h-1zm1 0h1v1h-1zm1 0h1v1h-1zm1 0h1v1h-1zm1 0h1v1h-1zm1 0h1v1h-1zm1 0h1v1h-1zm1 0h1v1h-1zm1 0h1v1h-1zm1 0h1v1h-1zm1 0h1v1h-1zm1 0h1v1h-1zm1 0h1v1h-1zm1 0h1v1h-1zm1 0h1v1h-1zm1 0h1v1h-1z"/><path d="M26 14h1v1h-1zm1 0h1v1h-1zM7 15h1v1H7z"/><path fill="#6ABE30" d="M8 15h1v1H8zm1 0h1v1H9zm1 0h1v1h-1zm1 0h1v1h-1zm1 0h1v1h-1zm1 0h1v1h-1zm1 0h1v1h-1zm1 0h1v1h-1zm1 0h1v1h-1zm1 0h1v1h-1zm1 0h1v1h-1zm1 0h1v1h-1zm1 0h1v1h-1z"/><path d="M21 15h1v1h-1zm1 0h1v1h-1zm1 0h1v1h-1zm1 0h1v1h-1zm1 0h1v1h-1zm1 0h1v1h-1zm1 0h1v1h-1zM7 16h1v1H7zm1 0h1v1H8z"/><path fill="#6ABE30" d="M9 16h1v1H9zm1 0h1v1h-1zm1 0h1v1h-1zm1 0h1v1h-1zm1 0h1v1h-1zm1 0h1v1h-1zm1 0h1v1h-1zm1 0h1v1h-1zm1 0h1v1h-1zm1 0h1v1h-1zm1 0h1v1h-1z"/><path d="M20 16h1v1h-1zm1 0h1v1h-1z"/><path fill="#AC3232" d="M22 16h1v1h-1zm1 0h1v1h-1z"/><path d="M7 17h1v1H7zm1 0h1v1H8z"/><path fill="#6ABE30" d="M9 17h1v1H9zm1 0h1v1h-1zm1 0h1v1h-1zm1 0h1v1h-1zm1 0h1v1h-1zm1 0h1v1h-1zm1 0h1v1h-1zm1 0h1v1h-1zm1 0h1v1h-1zm1 0h1v1h-1zm1 0h1v1h-1zm1 0h1v1h-1z"/><path d="M21 17h1v1h-1z"/><path fill="#AC3232" d="M23 17h1v1h-1zm1 0h1v1h-1zm1 0h1v1h-1z"/><path d="M7 18h1v1H7zm1 0h1v1H8z"/><path fill="#6ABE30" d="M9 18h1v1H9zm1 0h1v1h-1zm1 0h1v1h-1zm1 0h1v1h-1zm1 0h1v1h-1zm1 0h1v1h-1zm1 0h1v1h-1zm1 0h1v1h-1zm1 0h1v1h-1zm1 0h1v1h-1zm1 0h1v1h-1zm1 0h1v1h-1z"/><path d="M21 18h1v1h-1z"/><path fill="#AC3232" d="M25 18h1v1h-1zm1 0h1v1h-1z"/><path d="M7 19h1v1H7zm1 0h1v1H8zm1 0h1v1H9z"/><path fill="#6ABE30" d="M10 19h1v1h-1zm1 0h1v1h-1zm1 0h1v1h-1zm1 0h1v1h-1zm1 0h1v1h-1zm1 0h1v1h-1zm1 0h1v1h-1zm1 0h1v1h-1zm1 0h1v1h-1zm1 0h1v1h-1zm1 0h1v1h-1z"/><path d="M21 19h1v1h-1zm1 0h1v1h-1z"/><path fill="#AC3232" d="M26 19h1v1h-1z"/><path d="M7 20h1v1H7zm1 0h1v1H8zm1 0h1v1H9zm1 0h1v1h-1zm1 0h1v1h-1zm1 0h1v1h-1zm1 0h1v1h-1zm1 0h1v1h-1zm1 0h1v1h-1zm1 0h1v1h-1zm1 0h1v1h-1zm1 0h1v1h-1zm1 0h1v1h-1z"/><path fill="#6ABE30" d="M20 20h1v1h-1zm1 0h1v1h-1z"/><path d="M22 20h1v1h-1zm1 0h1v1h-1zm1 0h1v1h-1zM7 21h1v1H7z"/><path fill="#663931" d="M8 21h1v1H8zm1 0h1v1H9zm1 0h1v1h-1zm1 0h1v1h-1z"/><path d="M12 21h1v1h-1zm1 0h1v1h-1zm6 0h1v1h-1zm1 0h1v1h-1zm1 0h1v1h-1zm1 0h1v1h-1zm1 0h1v1h-1zm1 0h1v1h-1zm1 0h1v1h-1zM7 22h1v1H7z"/><path fill="#663931" d="M8 22h1v1H8zm1 0h1v1H9zm1 0h1v1h-1zm1 0h1v1h-1zm1 0h1v1h-1z"/><path d="M13 22h1v1h-1zm-6 1h1v1H7z"/><path fill="#663931" d="M8 23h1v1H8zm1 0h1v1H9zm1 0h1v1h-1zm1 0h1v1h-1zm1 0h1v1h-1z"/><path d="M13 23h1v1h-1zm1 0h1v1h-1zm-7 1h1v1H7z"/><path fill="#663931" d="M8 24h1v1H8zm1 0h1v1H9z"/><path fill="#FBF236" d="M10 24h1v1h-1z"/><path fill="#663931" d="M11 24h1v1h-1zm1 0h1v1h-1zm1 0h1v1h-1z"/><path d="M14 24h1v1h-1zm-7 1h1v1H7z"/><path fill="#663931" d="M8 25h1v1H8z"/><path fill="#FBF236" d="M9 25h1v1H9z"/><path fill="#5FCDE4" d="M10 25h1v1h-1z"/><path fill="#FBF236" d="M11 25h1v1h-1z"/><path fill="#663931" d="M12 25h1v1h-1zm1 0h1v1h-1z"/><path d="M14 25h1v1h-1zm-7 1h1v1H7z"/><path fill="#663931" d="M8 26h1v1H8zm1 0h1v1H9z"/><path fill="#FBF236" d="M10 26h1v1h-1z"/><path fill="#663931" d="M11 26h1v1h-1zm1 0h1v1h-1zm1 0h1v1h-1z"/><path d="M14 26h1v1h-1zm1 0h1v1h-1zm-8 1h1v1H7z"/><path fill="#663931" d="M8 27h1v1H8zm1 0h1v1H9z"/><path fill="#FBF236" d="M10 27h1v1h-1z"/><path fill="#663931" d="M11 27h1v1h-1zm1 0h1v1h-1zm1 0h1v1h-1zm1 0h1v1h-1z"/><path d="M15 27h1v1h-1zm-8 1h1v1H7z"/><path fill="#663931" d="M8 28h1v1H8zm1 0h1v1H9zm1 0h1v1h-1zm1 0h1v1h-1zm1 0h1v1h-1zm1 0h1v1h-1zm1 0h1v1h-1z"/><path d="M15 28h1v1h-1zm-8 1h1v1H7z"/><path fill="#663931" d="M8 29h1v1H8zm1 0h1v1H9zm1 0h1v1h-1zm1 0h1v1h-1zm1 0h1v1h-1zm1 0h1v1h-1zm1 0h1v1h-1z"/><path d="M15 29h1v1h-1zm1 0h1v1h-1zM6 30h1v1H6zm1 0h1v1H7z"/><path fill="#663931" d="M8 30h1v1H8zm1 0h1v1H9zm1 0h1v1h-1zm1 0h1v1h-1zm1 0h1v1h-1zm1 0h1v1h-1zm1 0h1v1h-1zm1 0h1v1h-1z"/><path d="M16 30h1v1h-1zM5 31h1v1H5zm1 0h1v1H6z"/><path fill="#663931" d="M7 31h1v1H7zm1 0h1v1H8zm1 0h1v1H9zm1 0h1v1h-1zm1 0h1v1h-1zm1 0h1v1h-1zm1 0h1v1h-1zm1 0h1v1h-1zm1 0h1v1h-1z"/><path d="M16 31h1v1h-1zm1 0h1v1h-1z"/></svg>