<svg xmlns="http://www.w3.org/2000/svg" width="32" height="32" shape-rendering="crispEdges"><path d="M13 5h1v1h-1zm1 0h1v1h-1zm1 0h1v1h-1zm1 0h1v1h-1zm1 0h1v1h-1zm1 0h1v1h-1zm1 0h1v1h-1zm1 0h1v1h-1zm1 0h1v1h-1zM10 6h1v1h-1zm1 0h1v1h-1zm1 0h1v1h-1z"/><path fill="#6ABE30" d="M13 6h1v1h-1z"/><path d="M14 6h1v1h-1zm1 0h1v1h-1z"/><path fill="#6ABE30" d="M16 6h1v1h-1zm1 0h1v1h-1zm1 0h1v1h-1zm1 0h1v1h-1z"/><path d="M20 6h1v1h-1zm1 0h1v1h-1zM9 7h1v1H9zm1 0h1v1h-1z"/><path fill="#6ABE30" d="M11 7h1v1h-1zm1 0h1v1h-1zm1 0h1v1h-1zm1 0h1v1h-1zm1 0h1v1h-1zm1 0h1v1h-1zm1 0h1v1h-1zm1 0h1v1h-1zm1 0h1v1h-1zm1 0h1v1h-1z"/><path d="M21 7h1v1h-1zm1 0h1v1h-1z"/><path fill="#663931" d="M24 7h1v1h-1z"/><path d="M9 8h1v1H9z"/><path fill="#6ABE30" d="M10 8h1v1h-1zm1 0h1v1h-1zm1 0h1v1h-1zm1 0h1v1h-1zm1 0h1v1h-1zm1 0h1v1h-1zm1 0h1v1h-1zm1 0h1v1h-1zm1 0h1v1h-1zm1 0h1v1h-1zm1 0h1v1h-1zm1 0h1v1h-1z"/><path d="M22 8h1v1h-1z"/><path fill="#663931" d="M23 8h1v1h-1zm1 0h1v1h-1z"/><path d="M9 9h1v1H9z"/><path fill="#6ABE30" d="M10 9h1v1h-1zm1 0h1v1h-1zm1 0h1v1h-1zm1 0h1v1h-1zm1 0h1v1h-1zm1 0h1v1h-1zm1 0h1v1h-1zm1 0h1v1h-1zm1 0h1v1h-1zm1 0h1v1h-1zm1 0h1v1h-1zm1 0h1v1h-1z"/><path d="M22 9h1v1h-1z"/><path fill="#663931" d="M23 9h1v1h-1z"/><path fill="#FBF236" d="M24 9h1v1h-1zm1 0h1v1h-1z"/><path d="M9 10h1v1H9z"/><path fill="#6ABE30" d="M10 10h1v1h-1zm1 0h1v1h-1zm1 0h1v1h-1zm1 0h1v1h-1zm1 0h1v1h-1zm1 0h1v1h-1zm1 0h1v1h-1zm1 0h1v1h-1zm1 0h1v1h-1zm1 0h1v1h-1zm1 0h1v1h-1zm1 0h1v1h-1z"/><path d="M22 10h1v1h-1z"/><path fill="#FBF236" d="M23 10h1v1h-1zm1 0h1v1h-1zm1 0h1v1h-1z"/><path d="M9 11h1v1H9z"/><path fill="#6ABE30" d="M10 11h1v1h-1zm1 0h1v1h-1zm1 0h1v1h-1zm1 0h1v1h-1zm1 0h1v1h-1zm1 0h1v1h-1zm1 0h1v1h-1zm1 0h1v1h-1zm1 0h1v1h-1zm1 0h1v1h-1zm1 0h1v1h-1zm1 0h1v1h-1z"/><path d="M22 11h1v1h-1z"/><path fill="#FBF236" d="M23 11h1v1h-1z"/><path fill="#663931" d="M24 11h1v1h-1z"/><path d="M9 12h1v1H9z"/><path fill="#6ABE30" d="M10 12h1v1h-1zm1 0h1v1h-1zm1 0h1v1h-1zm1 0h1v1h-1zm1 0h1v1h-1zm1 0h1v1h-1zm1 0h1v1h-1zm1 0h1v1h-1zm1 0h1v1h-1zm1 0h1v1h-1zm1 0h1v1h-1zm1 0h1v1h-1z"/><path d="M22 12h1v1h-1z"/><path fill="#663931" d="M23 12h1v1h-1zm1 0h1v1h-1z"/><path d="M9 13h1v1H9z"/><path fill="#6ABE30" d="M10 13h1v1h-1zm1 0h1v1h-1zm1 0h1v1h-1zm1 0h1v1h-1zm1 0h1v1h-1zm1 0h1v1h-1zm1 0h1v1h-1zm1 0h1v1h-1zm1 0h1v1h-1zm1 0h1v1h-1zm1 0h1v1h-1zm1 0h1v1h-1z"/><path d="M22 13h1v1h-1z"/><path fill="#663931" d="M23 13h1v1h-1z"/><path d="M9 14h1v1H9z"/><path fill="#6ABE30" d="M10 14h1v1h-1zm1 0h1v1h-1zm1 0h1v1h-1zm1 0h1v1h-1zm1 0h1v1h-1zm1 0h1v1h-1z"/><path d="M16 14h1v1h-1zm1 0h1v1h-1zm1 0h1v1h-1z"/><path fill="#6ABE30" d="M19 14h1v1h-1zm1 0h1v1h-1z"/><path d="M21 14h1v1h-1zm1 0h1v1h-1zM9 15h1v1H9z"/><path fill="#6ABE30" d="M10 15h1v1h-1zm1 0h1v1h-1zm1 0h1v1h-1zm1 0h1v1h-1zm1 0h1v1h-1zm1 0h1v1h-1zm1 0h1v1h-1zm1 0h1v1h-1zm1 0h1v1h-1zm1 0h1v1h-1zm1 0h1v1h-1zm1 0h1v1h-1z"/><path d="M22 15h1v1h-1zM9 16h1v1H9zm1 0h1v1h-1z"/><path fill="#6ABE30" d="M11 16h1v1h-1zm1 0h1v1h-1zm1 0h1v1h-1zm1 0h1v1h-1zm1 0h1v1h-1zm1 0h1v1h-1zm1 0h1v1h-1zm1 0h1v1h-1zm1 0h1v1h-1zm1 0h1v1h-1z"/><path d="M21 16h1v1h-1zm1 0h1v1h-1zM9 17h1v1H9zm1 0h1v1h-1z"/><path fill="#6ABE30" d="M11 17h1v1h-1zm1 0h1v1h-1zm1 0h1v1h-1zm1 0h1v1h-1zm1 0h1v1h-1zm1 0h1v1h-1zm1 0h1v1h-1zm1 0h1v1h-1zm1 0h1v1h-1z"/><path d="M20 17h1v1h-1zm1 0h1v1h-1zM9 18h1v1H9zm1 0h1v1h-1z"/><path fill="#6ABE30" d="M11 18h1v1h-1zm1 0h1v1h-1zm1 0h1v1h-1zm1 0h1v1h-1zm1 0h1v1h-1zm1 0h1v1h-1zm1 0h1v1h-1zm1 0h1v1h-1z"/><path d="M19 18h1v1h-1zm1 0h1v1h-1zM9 19h1v1H9zm1 0h1v1h-1z"/><path fill="#6ABE30" d="M11 19h1v1h-1zm1 0h1v1h-1zm1 0h1v1h-1zm1 0h1v1h-1zm1 0h1v1h-1zm1 0h1v1h-1zm1 0h1v1h-1zm1 0h1v1h-1z"/><path d="M19 19h1v1h-1zM8 20h1v1H8zm1 0h1v1H9zm1 0h1v1h-1z"/><path fill="#6ABE30" d="M11 20h1v1h-1zm1 0h1v1h-1zm1 0h1v1h-1zm1 0h1v1h-1zm1 0h1v1h-1zm1 0h1v1h-1zm1 0h1v1h-1zm1 0h1v1h-1z"/><path d="M19 20h1v1h-1zM7 21h1v1H7zm1 0h1v1H8zm1 0h1v1H9zm1 0h1v1h-1z"/><path fill="#6ABE30" d="M11 21h1v1h-1zm1 0h1v1h-1zm1 0h1v1h-1zm1 0h1v1h-1zm1 0h1v1h-1zm1 0h1v1h-1zm1 0h1v1h-1z"/><path d="M18 21h1v1h-1zM7 22h1v1H7zm1 0h1v1H8zm1 0h1v1H9zm1 0h1v1h-1z"/><path fill="#6ABE30" d="M11 22h1v1h-1zm1 0h1v1h-1zm1 0h1v1h-1zm1 0h1v1h-1zm1 0h1v1h-1zm1 0h1v1h-1zm1 0h1v1h-1z"/><path d="M18 22h1v1h-1zM8 23h1v1H8zm1 0h1v1H9zm1 0h1v1h-1z"/><path fill="#6ABE30" d="M11 23h1v1h-1zm1 0h1v1h-1z"/><path d="M13 23h1v1h-1zm1 0h1v1h-1z"/><path fill="#6ABE30" d="M15 23h1v1h-1zm1 0h1v1h-1z"/><path d="M17 23h1v1h-1zm1 0h1v1h-1zM8 24h1v1H8zm1 0h1v1H9zm1 0h1v1h-1zm1 0h1v1h-1zm1 0h1v1h-1z"/><path fill="#AC3232" d="M13 24h1v1h-1z"/><path d="M14 24h1v1h-1zm1 0h1v1h-1z"/><path fill="#6ABE30" d="M16 24h1v1h-1z"/><path d="M17 24h1v1h-1zm-8 1h1v1H9zm1 0h1v1h-1zm1 0h1v1h-1z"/><path fill="#AC3232" d="M12 25h1v1h-1zm1 0h1v1h-1z"/><path d="M14 25h1v1h-1z"/><path fill="#6ABE30" d="M15 25h1v1h-1zm1 0h1v1h-1z"/><path d="M17 25h1v1h-1zm-8 1h1v1H9z"/><path fill="#AC3232" d="M10 26h1v1h-1zm1 0h1v1h-1zm1 0h1v1h-1z"/><path fill="#FBF236" d="M13 26h1v1h-1z"/><path fill="#663931" d="M14 26h1v1h-1zm1 0h1v1h-1zm1 0h1v1h-1z"/><path d="M17 26h1v1h-1zm1 0h1v1h-1zm-9 1h1v1H9z"/><path fill="#663931" d="M10 27h1v1h-1zm1 0h1v1h-1z"/><path fill="#FBF236" d="M12 27h1v1h-1z"/><path fill="#AC3232" d="M13 27h1v1h-1z"/><path fill="#FBF236" d="M14 27h1v1h-1z"/><path fill="#663931" d="M15 27h1v1h-1zm1 0h1v1h-1zm1 0h1v1h-1z"/><path d="M18 27h1v1h-1zm-9 1h1v1H9z"/><path fill="#663931" d="M10 28h1v1h-1zm1 0h1v1h-1zm1 0h1v1h-1z"/><path fill="#FBF236" d="M13 28h1v1h-1z"/><path fill="#663931" d="M14 28h1v1h-1zm1 0h1v1h-1zm1 0h1v1h-1zm1 0h1v1h-1z"/><path d="M18 28h1v1h-1zm-9 1h1v1H9z"/><path fill="#663931" d="M10 29h1v1h-1zm1 0h1v1h-1zm1 0h1v1h-1zm1 0h1v1h-1zm1 0h1v1h-1zm1 0h1v1h-1zm1 0h1v1h-1zm1 0h1v1h-1z"/><path d="M18 29h1v1h-1zm1 0h1v1h-1zM9 30h1v1H9z"/><path fill="#663931" d="M10 30h1v1h-1zm1 0h1v1h-1zm1 0h1v1h-1zm1 0h1v1h-1zm1 0h1v1h-1zm1 0h1v1h-1zm1 0h1v1h-1zm1 0h1v1h-1zm1 0h1v1h-1z"/><path d="M19 30h1v1h-1zM9 31h1v1H9z"/><path fill="#663931" d="M10 31h1v1h-1zm1 0h1v1h-1zm1 0h1v1h-1zm1 0h1v1h-1zm1 0h1v1h-1zm1 0h1v1h-1zm1 0h1v1h-1zm1 0h1v1h-1zm1 0h1v1h-1z"/><path d="M19 31h1v1h-1z"/></svg>