<svg xmlns="http://www.w3.org/2000/svg" width="32" height="32" shape-rendering="crispEdges"><path fill="#FBF236" d="M14 4h1v1h-1zm1 0h1v1h-1z"/><path fill="#663931" d="M12 5h1v1h-1zm1 0h1v1h-1z"/><path fill="#FBF236" d="M14 5h1v1h-1zm1 0h1v1h-1z"/><path fill="#663931" d="M16 5h1v1h-1zm1 0h1v1h-1zm-5 1h1v1h-1zm1 0h1v1h-1z"/><path fill="#FBF236" d="M14 6h1v1h-1zm1 0h1v1h-1z"/><path fill="#663931" d="M16 6h1v1h-1zm1 0h1v1h-1z"/><path d="M11 7h1v1h-1zm1 0h1v1h-1zm1 0h1v1h-1zm1 0h1v1h-1zm1 0h1v1h-1zm1 0h1v1h-1zm1 0h1v1h-1zm1 0h1v1h-1zm-8 1h1v1h-1zm1 0h1v1h-1z"/><path fill="#6ABE30" d="M12 8h1v1h-1zm1 0h1v1h-1zm1 0h1v1h-1zm1 0h1v1h-1zm1 0h1v1h-1zm1 0h1v1h-1z"/><path d="M18 8h1v1h-1zm1 0h1v1h-1zm1 0h1v1h-1zM9 9h1v1H9zm1 0h1v1h-1z"/><path fill="#6ABE30" d="M11 9h1v1h-1zm1 0h1v1h-1zm1 0h1v1h-1zm1 0h1v1h-1zm1 0h1v1h-1zm1 0h1v1h-1zm1 0h1v1h-1zm1 0h1v1h-1zm1 0h1v1h-1z"/><path d="M20 9h1v1h-1zm1 0h1v1h-1zM9 10h1v1H9z"/><path fill="#6ABE30" d="M10 10h1v1h-1zm1 0h1v1h-1zm1 0h1v1h-1zm1 0h1v1h-1zm1 0h1v1h-1zm1 0h1v1h-1zm1 0h1v1h-1zm1 0h1v1h-1zm1 0h1v1h-1zm1 0h1v1h-1zm1 0h1v1h-1z"/><path d="M21 10h1v1h-1zm1 0h1v1h-1zM9 11h1v1H9z"/><path fill="#6ABE30" d="M10 11h1v1h-1zm1 0h1v1h-1zm1 0h1v1h-1zm1 0h1v1h-1zm1 0h1v1h-1zm1 0h1v1h-1zm1 0h1v1h-1z"/><path d="M17 11h1v1h-1z"/><path fill="#6ABE30" d="M18 11h1v1h-1zm1 0h1v1h-1zm1 0h1v1h-1zm1 0h1v1h-1z"/><path d="M22 11h1v1h-1zm1 0h1v1h-1zm1 0h1v1h-1zM9 12h1v1H9z"/><path fill="#6ABE30" d="M10 12h1v1h-1zm1 0h1v1h-1zm1 0h1v1h-1zm1 0h1v1h-1zm1 0h1v1h-1zm1 0h1v1h-1zm1 0h1v1h-1z"/><path d="M17 12h1v1h-1z"/><path fill="#6ABE30" d="M18 12h1v1h-1zm1 0h1v1h-1zm1 0h1v1h-1zm1 0h1v1h-1zm1 0h1v1h-1zm1 0h1v1h-1z"/><path d="M24 12h1v1h-1zm1 0h1v1h-1zm1 0h1v1h-1zM9 13h1v1H9zm1 0h1v1h-1z"/><path fill="#6ABE30" d="M11 13h1v1h-1zm1 0h1v1h-1zm1 0h1v1h-1zm1 0h1v1h-1zm1 0h1v1h-1zm1 0h1v1h-1z"/><path d="M17 13h1v1h-1z"/><path fill="#6ABE30" d="M18 13h1v1h-1zm1 0h1v1h-1zm1 0h1v1h-1zm1 0h1v1h-1zm1 0h1v1h-1zm1 0h1v1h-1zm1 0h1v1h-1zm1 0h1v1h-1z"/><path d="M26 13h1v1h-1zm1 0h1v1h-1zm1 0h1v1h-1zm1 0h1v1h-1zm-19 1h1v1h-1z"/><path fill="#6ABE30" d="M11 14h1v1h-1zm1 0h1v1h-1zm1 0h1v1h-1zm1 0h1v1h-1zm1 0h1v1h-1zm1 0h1v1h-1zm1 0h1v1h-1zm1 0h1v1h-1zm1 0h1v1h-1zm1 0h1v1h-1zm1 0h1v1h-1zm1 0h1v1h-1zm1 0h1v1h-1zm1 0h1v1h-1zm1 0h1v1h-1zm1 0h1v1h-1zm1 0h1v1h-1zm1 0h1v1h-1z"/><path d="M29 14h1v1h-1zm1 0h1v1h-1zM9 15h1v1H9zm1 0h1v1h-1z"/><path fill="#6ABE30" d="M11 15h1v1h-1zm1 0h1v1h-1zm1 0h1v1h-1zm1 0h1v1h-1zm1 0h1v1h-1zm1 0h1v1h-1zm1 0h1v1h-1zm1 0h1v1h-1zm1 0h1v1h-1zm1 0h1v1h-1zm1 0h1v1h-1zm1 0h1v1h-1zm1 0h1v1h-1zm1 0h1v1h-1zm1 0h1v1h-1zm1 0h1v1h-1z"/><path d="M27 15h1v1h-1z"/><path fill="#6ABE30" d="M28 15h1v1h-1zm1 0h1v1h-1z"/><path d="M30 15h1v1h-1zM8 16h1v1H8zm1 0h1v1H9z"/><path fill="#6ABE30" d="M10 16h1v1h-1zm1 0h1v1h-1zm1 0h1v1h-1zm1 0h1v1h-1zm1 0h1v1h-1zm1 0h1v1h-1zm1 0h1v1h-1zm1 0h1v1h-1zm1 0h1v1h-1zm1 0h1v1h-1zm1 0h1v1h-1zm1 0h1v1h-1zm1 0h1v1h-1zm1 0h1v1h-1zm1 0h1v1h-1zm1 0h1v1h-1z"/><path d="M26 16h1v1h-1zm1 0h1v1h-1zm1 0h1v1h-1zm1 0h1v1h-1zm1 0h1v1h-1zM8 17h1v1H8z"/><path fill="#6ABE30" d="M9 17h1v1H9zm1 0h1v1h-1zm1 0h1v1h-1zm1 0h1v1h-1zm1 0h1v1h-1zm1 0h1v1h-1zm1 0h1v1h-1zm1 0h1v1h-1zm1 0h1v1h-1zm1 0h1v1h-1zm1 0h1v1h-1zm1 0h1v1h-1zm1 0h1v1h-1zm1 0h1v1h-1zm1 0h1v1h-1zm1 0h1v1h-1zm1 0h1v1h-1z"/><path d="M26 17h1v1h-1z"/><path fill="#AC3232" d="M27 17h1v1h-1zm1 0h1v1h-1z"/><path d="M8 18h1v1H8z"/><path fill="#6ABE30" d="M9 18h1v1H9zm1 0h1v1h-1zm1 0h1v1h-1zm1 0h1v1h-1zm1 0h1v1h-1zm1 0h1v1h-1zm1 0h1v1h-1zm1 0h1v1h-1zm1 0h1v1h-1zm1 0h1v1h-1zm1 0h1v1h-1zm1 0h1v1h-1zm1 0h1v1h-1zm1 0h1v1h-1zm1 0h1v1h-1zm1 0h1v1h-1zm1 0h1v1h-1z"/><path d="M26 18h1v1h-1z"/><path fill="#AC3232" d="M28 18h1v1h-1zm1 0h1v1h-1zm1 0h1v1h-1z"/><path d="M7 19h1v1H7zm1 0h1v1H8zm1 0h1v1H9z"/><path fill="#6ABE30" d="M10 19h1v1h-1zm1 0h1v1h-1zm1 0h1v1h-1zm1 0h1v1h-1zm1 0h1v1h-1zm1 0h1v1h-1zm1 0h1v1h-1zm1 0h1v1h-1zm1 0h1v1h-1zm1 0h1v1h-1zm1 0h1v1h-1zm1 0h1v1h-1zm1 0h1v1h-1zm1 0h1v1h-1zm1 0h1v1h-1zm1 0h1v1h-1z"/><path d="M26 19h1v1h-1zm1 0h1v1h-1z"/><path fill="#AC3232" d="M30 19h1v1h-1zm1 0h1v1h-1z"/><path d="M7 20h1v1H7zm1 0h1v1H8zm1 0h1v1H9zm1 0h1v1h-1zm1 0h1v1h-1zm1 0h1v1h-1zm1 0h1v1h-1zm1 0h1v1h-1zm1 0h1v1h-1zm1 0h1v1h-1zm1 0h1v1h-1zm1 0h1v1h-1zm1 0h1v1h-1z"/><path fill="#6ABE30" d="M20 20h1v1h-1zm1 0h1v1h-1zm1 0h1v1h-1zm1 0h1v1h-1zm1 0h1v1h-1zm1 0h1v1h-1zm1 0h1v1h-1z"/><path d="M27 20h1v1h-1zm1 0h1v1h-1zM7 21h1v1H7zm1 0h1v1H8z"/><path fill="#663931" d="M9 21h1v1H9zm1 0h1v1h-1zm1 0h1v1h-1zm1 0h1v1h-1zm1 0h1v1h-1zm1 0h1v1h-1z"/><path d="M15 21h1v1h-1zm4 0h1v1h-1zm1 0h1v1h-1zm1 0h1v1h-1zm1 0h1v1h-1zm1 0h1v1h-1zm1 0h1v1h-1zm1 0h1v1h-1zm1 0h1v1h-1zm1 0h1v1h-1zm1 0h1v1h-1z"/><path fill="#5FCDE4" d="M29 21h1v1h-1z"/><path d="M7 22h1v1H7zm1 0h1v1H8z"/><path fill="#663931" d="M9 22h1v1H9zm1 0h1v1h-1zm1 0h1v1h-1zm1 0h1v1h-1zm1 0h1v1h-1zm1 0h1v1h-1z"/><path d="M15 22h1v1h-1zm1 0h1v1h-1z"/><path fill="#5FCDE4" d="M28 22h1v1h-1z"/><path d="M8 23h1v1H8z"/><path fill="#663931" d="M9 23h1v1H9zm1 0h1v1h-1zm1 0h1v1h-1zm1 0h1v1h-1zm1 0h1v1h-1zm1 0h1v1h-1zm1 0h1v1h-1z"/><path d="M16 23h1v1h-1z"/><path fill="#5FCDE4" d="M28 23h1v1h-1z"/><path d="M8 24h1v1H8zm1 0h1v1H9z"/><path fill="#663931" d="M10 24h1v1h-1zm1 0h1v1h-1zm1 0h1v1h-1zm1 0h1v1h-1zm1 0h1v1h-1zm1 0h1v1h-1z"/><path d="M16 24h1v1h-1zm1 0h1v1h-1zm-8 1h1v1H9z"/><path fill="#663931" d="M10 25h1v1h-1zm1 0h1v1h-1zm1 0h1v1h-1z"/><path fill="#FBF236" d="M13 25h1v1h-1z"/><path fill="#663931" d="M14 25h1v1h-1zm1 0h1v1h-1zm1 0h1v1h-1z"/><path d="M17 25h1v1h-1zm-8 1h1v1H9z"/><path fill="#663931" d="M10 26h1v1h-1zm1 0h1v1h-1zm1 0h1v1h-1z"/><path fill="#FBF236" d="M13 26h1v1h-1z"/><path fill="#663931" d="M14 26h1v1h-1zm1 0h1v1h-1zm1 0h1v1h-1z"/><path d="M17 26h1v1h-1zm1 0h1v1h-1zm-9 1h1v1H9z"/><path fill="#663931" d="M10 27h1v1h-1zm1 0h1v1h-1z"/><path fill="#FBF236" d="M12 27h1v1h-1z"/><path fill="#AC3232" d="M13 27h1v1h-1z"/><path fill="#FBF236" d="M14 27h1v1h-1z"/><path fill="#663931" d="M15 27h1v1h-1zm1 0h1v1h-1zm1 0h1v1h-1z"/><path d="M18 27h1v1h-1zm-9 1h1v1H9z"/><path fill="#663931" d="M10 28h1v1h-1zm1 0h1v1h-1zm1 0h1v1h-1z"/><path fill="#FBF236" d="M13 28h1v1h-1z"/><path fill="#663931" d="M14 28h1v1h-1zm1 0h1v1h-1zm1 0h1v1h-1zm1 0h1v1h-1z"/><path d="M18 28h1v1h-1zm-9 1h1v1H9z"/><path fill="#663931" d="M10 29h1v1h-1zm1 0h1v1h-1zm1 0h1v1h-1zm1 0h1v1h-1zm1 0h1v1h-1zm1 0h1v1h-1zm1 0h1v1h-1zm1 0h1v1h-1z"/><path d="M18 29h1v1h-1zm1 0h1v1h-1zM9 30h1v1H9z"/><path fill="#663931" d="M10 30h1v1h-1zm1 0h1v1h-1zm1 0h1v1h-1zm1 0h1v1h-1zm1 0h1v1h-1zm1 0h1v1h-1zm1 0h1v1h-1zm1 0h1v1h-1zm1 0h1v1h-1z"/><path d="M19 30h1v1h-1zM9 31h1v1H9z"/><path fill="#663931" d="M10 31h1v1h-1zm1 0h1v1h-1zm1 0h1v1h-1zm1 0h1v1h-1zm1 0h1v1h-1zm1 0h1v1h-1zm1 0h1v1h-1zm1 0h1v1h-1zm1 0h1v1h-1z"/><path d="M19 31h1v1h-1z"/></svg>