<svg xmlns="http://www.w3.org/2000/svg" width="32" height="32" shape-rendering="crispEdges"><path d="M11 0h1v1h-1z"/><path fill="#6ABE30" d="M12 0h1v1h-1zm1 0h1v1h-1z"/><path d="M14 0h1v1h-1z"/><path fill="#AC3232" d="M16 0h1v1h-1zm1 0h1v1h-1zm1 0h1v1h-1z"/><path d="M11 1h1v1h-1z"/><path fill="#6ABE30" d="M12 1h1v1h-1z"/><path d="M13 1h1v1h-1zm1 0h1v1h-1z"/><path fill="#AC3232" d="M16 1h1v1h-1z"/><path d="M17 1h1v1h-1zm1 0h1v1h-1zm-8 1h1v1h-1zm1 0h1v1h-1z"/><path fill="#6ABE30" d="M12 2h1v1h-1zm1 0h1v1h-1z"/><path d="M14 2h1v1h-1zm1 0h1v1h-1zm1 0h1v1h-1zm1 0h1v1h-1zm1 0h1v1h-1zm-8 1h1v1h-1z"/><path fill="#6ABE30" d="M11 3h1v1h-1zm1 0h1v1h-1zm1 0h1v1h-1zm1 0h1v1h-1zm1 0h1v1h-1zm1 0h1v1h-1zm1 0h1v1h-1z"/><path d="M18 3h1v1h-1zm-8 1h1v1h-1z"/><path fill="#6ABE30" d="M11 4h1v1h-1zm1 0h1v1h-1zm1 0h1v1h-1zm1 0h1v1h-1zm1 0h1v1h-1zm1 0h1v1h-1zm1 0h1v1h-1z"/><path d="M18 4h1v1h-1zM9 5h1v1H9z"/><path fill="#6ABE30" d="M10 5h1v1h-1zm1 0h1v1h-1zm1 0h1v1h-1zm1 0h1v1h-1zm1 0h1v1h-1zm1 0h1v1h-1zm1 0h1v1h-1zm1 0h1v1h-1z"/><path d="M18 5h1v1h-1zM9 6h1v1H9z"/><path fill="#6ABE30" d="M10 6h1v1h-1zm1 0h1v1h-1zm1 0h1v1h-1zm1 0h1v1h-1zm1 0h1v1h-1zm1 0h1v1h-1zm1 0h1v1h-1zm1 0h1v1h-1z"/><path d="M18 6h1v1h-1zM8 7h1v1H8zm1 0h1v1H9z"/><path fill="#6ABE30" d="M10 7h1v1h-1zm1 0h1v1h-1zm1 0h1v1h-1zm1 0h1v1h-1zm1 0h1v1h-1zm1 0h1v1h-1zm1 0h1v1h-1zm1 0h1v1h-1z"/><path d="M18 7h1v1h-1zM7 8h1v1H7zm1 0h1v1H8z"/><path fill="#6ABE30" d="M9 8h1v1H9zm1 0h1v1h-1zm1 0h1v1h-1zm1 0h1v1h-1zm1 0h1v1h-1zm1 0h1v1h-1zm1 0h1v1h-1zm1 0h1v1h-1zm1 0h1v1h-1z"/><path d="M18 8h1v1h-1zM6 9h1v1H6zm1 0h1v1H7z"/><path fill="#6ABE30" d="M8 9h1v1H8zm1 0h1v1H9zm1 0h1v1h-1zm1 0h1v1h-1zm1 0h1v1h-1zm1 0h1v1h-1zm1 0h1v1h-1zm1 0h1v1h-1zm1 0h1v1h-1zm1 0h1v1h-1z"/><path d="M18 9h1v1h-1zM6 10h1v1H6z"/><path fill="#6ABE30" d="M7 10h1v1H7zm1 0h1v1H8zm1 0h1v1H9zm1 0h1v1h-1zm1 0h1v1h-1zm1 0h1v1h-1zm1 0h1v1h-1zm1 0h1v1h-1zm1 0h1v1h-1zm1 0h1v1h-1zm1 0h1v1h-1z"/><path d="M18 10h1v1h-1zm1 0h1v1h-1zM6 11h1v1H6zm1 0h1v1H7z"/><path fill="#6ABE30" d="M8 11h1v1H8zm1 0h1v1H9z"/><path d="M10 11h1v1h-1zm1 0h1v1h-1zm1 0h1v1h-1z"/><path fill="#6ABE30" d="M13 11h1v1h-1zm1 0h1v1h-1zm1 0h1v1h-1zm1 0h1v1h-1zm1 0h1v1h-1zm1 0h1v1h-1z"/><path d="M19 11h1v1h-1z"/><path fill="#663931" d="M4 12h1v1H4zm1 0h1v1H5z"/><path d="M6 12h1v1H6z"/><path fill="#6ABE30" d="M7 12h1v1H7zm1 0h1v1H8zm1 0h1v1H9zm1 0h1v1h-1zm1 0h1v1h-1zm1 0h1v1h-1zm1 0h1v1h-1zm1 0h1v1h-1zm1 0h1v1h-1zm1 0h1v1h-1zm1 0h1v1h-1zm1 0h1v1h-1z"/><path d="M19 12h1v1h-1z"/><path fill="#663931" d="M4 13h1v1H4zm1 0h1v1H5z"/><path d="M6 13h1v1H6z"/><path fill="#6ABE30" d="M7 13h1v1H7zm1 0h1v1H8zm1 0h1v1H9zm1 0h1v1h-1zm1 0h1v1h-1zm1 0h1v1h-1zm1 0h1v1h-1zm1 0h1v1h-1zm1 0h1v1h-1zm1 0h1v1h-1zm1 0h1v1h-1zm1 0h1v1h-1z"/><path d="M19 13h1v1h-1z"/><path fill="#FBF236" d="M3 14h1v1H3zm1 0h1v1H4zm1 0h1v1H5z"/><path d="M6 14h1v1H6z"/><path fill="#6ABE30" d="M7 14h1v1H7zm1 0h1v1H8zm1 0h1v1H9zm1 0h1v1h-1zm1 0h1v1h-1zm1 0h1v1h-1zm1 0h1v1h-1zm1 0h1v1h-1zm1 0h1v1h-1zm1 0h1v1h-1zm1 0h1v1h-1zm1 0h1v1h-1z"/><path d="M19 14h1v1h-1z"/><path fill="#FBF236" d="M3 15h1v1H3zm1 0h1v1H4zm1 0h1v1H5z"/><path d="M6 15h1v1H6z"/><path fill="#6ABE30" d="M7 15h1v1H7zm1 0h1v1H8zm1 0h1v1H9zm1 0h1v1h-1zm1 0h1v1h-1zm1 0h1v1h-1zm1 0h1v1h-1zm1 0h1v1h-1zm1 0h1v1h-1zm1 0h1v1h-1zm1 0h1v1h-1zm1 0h1v1h-1z"/><path d="M19 15h1v1h-1z"/><path fill="#663931" d="M4 16h1v1H4zm1 0h1v1H5z"/><path d="M6 16h1v1H6z"/><path fill="#6ABE30" d="M7 16h1v1H7zm1 0h1v1H8zm1 0h1v1H9zm1 0h1v1h-1zm1 0h1v1h-1zm1 0h1v1h-1zm1 0h1v1h-1zm1 0h1v1h-1zm1 0h1v1h-1zm1 0h1v1h-1zm1 0h1v1h-1zm1 0h1v1h-1z"/><path d="M19 16h1v1h-1z"/><path fill="#663931" d="M4 17h1v1H4zm1 0h1v1H5z"/><path d="M6 17h1v1H6z"/><path fill="#6ABE30" d="M7 17h1v1H7zm1 0h1v1H8zm1 0h1v1H9zm1 0h1v1h-1zm1 0h1v1h-1zm1 0h1v1h-1zm1 0h1v1h-1zm1 0h1v1h-1zm1 0h1v1h-1zm1 0h1v1h-1zm1 0h1v1h-1zm1 0h1v1h-1z"/><path d="M19 17h1v1h-1zM6 18h1v1H6zm1 0h1v1H7z"/><path fill="#6ABE30" d="M8 18h1v1H8zm1 0h1v1H9zm1 0h1v1h-1zm1 0h1v1h-1zm1 0h1v1h-1zm1 0h1v1h-1zm1 0h1v1h-1zm1 0h1v1h-1zm1 0h1v1h-1zm1 0h1v1h-1zm1 0h1v1h-1z"/><path d="M19 18h1v1h-1zM7 19h1v1H7zm1 0h1v1H8z"/><path fill="#6ABE30" d="M9 19h1v1H9zm1 0h1v1h-1zm1 0h1v1h-1zm1 0h1v1h-1z"/><path d="M13 19h1v1h-1zm1 0h1v1h-1z"/><path fill="#6ABE30" d="M15 19h1v1h-1zm1 0h1v1h-1zm1 0h1v1h-1z"/><path d="M18 19h1v1h-1zm1 0h1v1h-1zM7 20h1v1H7zm1 0h1v1H8zm1 0h1v1H9zm1 0h1v1h-1zm1 0h1v1h-1zm1 0h1v1h-1zm1 0h1v1h-1zm1 0h1v1h-1zm1 0h1v1h-1zm1 0h1v1h-1zm1 0h1v1h-1zm1 0h1v1h-1zM7 21h1v1H7zm1 0h1v1H8z"/><path fill="#663931" d="M9 21h1v1H9zm1 0h1v1h-1zm1 0h1v1h-1zm1 0h1v1h-1zm1 0h1v1h-1zm1 0h1v1h-1z"/><path d="M15 21h1v1h-1zm-8 1h1v1H7zm1 0h1v1H8z"/><path fill="#663931" d="M9 22h1v1H9zm1 0h1v1h-1zm1 0h1v1h-1zm1 0h1v1h-1zm1 0h1v1h-1zm1 0h1v1h-1z"/><path d="M15 22h1v1h-1zm1 0h1v1h-1zm-8 1h1v1H8z"/><path fill="#663931" d="M9 23h1v1H9zm1 0h1v1h-1zm1 0h1v1h-1zm1 0h1v1h-1zm1 0h1v1h-1zm1 0h1v1h-1zm1 0h1v1h-1z"/><path d="M16 23h1v1h-1zm-8 1h1v1H8zm1 0h1v1H9z"/><path fill="#663931" d="M10 24h1v1h-1zm1 0h1v1h-1zm1 0h1v1h-1zm1 0h1v1h-1zm1 0h1v1h-1zm1 0h1v1h-1z"/><path d="M16 24h1v1h-1zm1 0h1v1h-1zm-8 1h1v1H9z"/><path fill="#663931" d="M10 25h1v1h-1zm1 0h1v1h-1zm1 0h1v1h-1z"/><path fill="#FBF236" d="M13 25h1v1h-1z"/><path fill="#663931" d="M14 25h1v1h-1zm1 0h1v1h-1zm1 0h1v1h-1z"/><path d="M17 25h1v1h-1zm-8 1h1v1H9z"/><path fill="#663931" d="M10 26h1v1h-1zm1 0h1v1h-1zm1 0h1v1h-1z"/><path fill="#FBF236" d="M13 26h1v1h-1z"/><path fill="#663931" d="M14 26h1v1h-1zm1 0h1v1h-1zm1 0h1v1h-1z"/><path d="M17 26h1v1h-1zm1 0h1v1h-1zm-9 1h1v1H9z"/><path fill="#663931" d="M10 27h1v1h-1zm1 0h1v1h-1z"/><path fill="#FBF236" d="M12 27h1v1h-1z"/><path fill="#AC3232" d="M13 27h1v1h-1z"/><path fill="#FBF236" d="M14 27h1v1h-1z"/><path fill="#663931" d="M15 27h1v1h-1zm1 0h1v1h-1zm1 0h1v1h-1z"/><path d="M18 27h1v1h-1zm-9 1h1v1H9z"/><path fill="#663931" d="M10 28h1v1h-1zm1 0h1v1h-1zm1 0h1v1h-1z"/><path fill="#FBF236" d="M13 28h1v1h-1z"/><path fill="#663931" d="M14 28h1v1h-1zm1 0h1v1h-1zm1 0h1v1h-1zm1 0h1v1h-1z"/><path d="M18 28h1v1h-1zm-9 1h1v1H9z"/><path fill="#663931" d="M10 29h1v1h-1zm1 0h1v1h-1zm1 0h1v1h-1zm1 0h1v1h-1zm1 0h1v1h-1zm1 0h1v1h-1zm1 0h1v1h-1zm1 0h1v1h-1z"/><path d="M18 29h1v1h-1zm1 0h1v1h-1zM9 30h1v1H9z"/><path fill="#663931" d="M10 30h1v1h-1zm1 0h1v1h-1zm1 0h1v1h-1zm1 0h1v1h-1zm1 0h1v1h-1zm1 0h1v1h-1zm1 0h1v1h-1zm1 0h1v1h-1zm1 0h1v1h-1z"/><path d="M19 30h1v1h-1zM9 31h1v1H9z"/><path fill="#663931" d="M10 31h1v1h-1zm1 0h1v1h-1zm1 0h1v1h-1zm1 0h1v1h-1zm1 0h1v1h-1zm1 0h1v1h-1zm1 0h1v1h-1zm1 0h1v1h-1zm1 0h1v1h-1z"/><path d="M19 31h1v1h-1z"/></svg>